<svg width="1200" height="700" viewBox="0 0 1200 700" xmlns="http://www.w3.org/2000/svg" role="img" aria-label="Chess Analyzer UI Preview">
  <defs>
    <linearGradient id="bg" x1="0" y1="0" x2="1" y2="1">
      <stop offset="0%" stop-color="#111827"/>
      <stop offset="100%" stop-color="#1f2937"/>
    </linearGradient>
  </defs>

  <rect x="0" y="0" width="1200" height="700" fill="url(#bg)"/>
  <text x="36" y="50" fill="#f9fafb" font-size="34" font-family="Segoe UI, Arial">Chess Analyzer</text>

  <rect x="30" y="80" width="320" height="260" rx="12" fill="#1f2937" stroke="#374151"/>
  <text x="50" y="115" fill="#e5e7eb" font-size="18" font-family="Segoe UI, Arial">PGN Input</text>
  <rect x="50" y="130" width="280" height="150" rx="8" fill="#111827" stroke="#4b5563"/>
  <rect x="50" y="292" width="130" height="30" rx="6" fill="#2563eb"/>
  <text x="82" y="313" fill="#fff" font-size="14" font-family="Segoe UI, Arial">Analyze</text>

  <rect x="30" y="360" width="320" height="290" rx="12" fill="#1f2937" stroke="#374151"/>
  <text x="50" y="395" fill="#e5e7eb" font-size="18" font-family="Segoe UI, Arial">Move Details</text>
  <text x="50" y="430" fill="#9ca3af" font-size="14" font-family="Segoe UI, Arial">SAN: Nf3</text>
  <text x="50" y="455" fill="#9ca3af" font-size="14" font-family="Segoe UI, Arial">Label: Best</text>
  <text x="50" y="480" fill="#9ca3af" font-size="14" font-family="Segoe UI, Arial">CPL: 4</text>
  <text x="50" y="505" fill="#9ca3af" font-size="14" font-family="Segoe UI, Arial">Best Move: g1f3</text>
  <text x="50" y="530" fill="#9ca3af" font-size="14" font-family="Segoe UI, Arial">Eval Before: +0.22</text>
  <text x="50" y="555" fill="#9ca3af" font-size="14" font-family="Segoe UI, Arial">Eval After: +0.31</text>

  <rect x="380" y="80" width="370" height="420" rx="12" fill="#1f2937" stroke="#374151"/>
  <text x="400" y="115" fill="#e5e7eb" font-size="18" font-family="Segoe UI, Arial">Board + Step Controls</text>
  <rect x="400" y="130" width="330" height="330" rx="8" fill="#111827" stroke="#4b5563"/>
  <text x="405" y="480" fill="#d1d5db" font-size="16" font-family="Segoe UI, Arial">Eval: +0.31</text>

  <rect x="780" y="80" width="390" height="220" rx="12" fill="#1f2937" stroke="#374151"/>
  <text x="800" y="115" fill="#e5e7eb" font-size="18" font-family="Segoe UI, Arial">Evaluation Graph</text>
  <polyline points="800,240 860,200 920,210 980,160 1040,175 1100,140" fill="none" stroke="#22c55e" stroke-width="4"/>
  <line x1="800" y1="190" x2="1140" y2="190" stroke="#6b7280" stroke-dasharray="6 4"/>

  <rect x="780" y="320" width="390" height="330" rx="12" fill="#1f2937" stroke="#374151"/>
  <text x="800" y="355" fill="#e5e7eb" font-size="18" font-family="Segoe UI, Arial">Move List</text>
  <rect x="800" y="370" width="350" height="34" rx="6" fill="#2563eb"/>
  <text x="815" y="392" fill="#fff" font-size="14" font-family="Segoe UI, Arial">1. e4 | +0.31 | Best</text>
  <text x="815" y="430" fill="#9ca3af" font-size="14" font-family="Segoe UI, Arial">2. e5 | +0.05 | Good</text>
  <text x="815" y="456" fill="#9ca3af" font-size="14" font-family="Segoe UI, Arial">3. Nf3 | +0.24 | Excellent</text>
  <text x="815" y="482" fill="#9ca3af" font-size="14" font-family="Segoe UI, Arial">4. Nc6 | +0.19 | Best</text>

  <text x="30" y="685" fill="#6b7280" font-size="13" font-family="Segoe UI, Arial">Generated preview of the current MVP UI layout</text>
</svg>
